<svg width="48" height="34" viewBox="0 0 48 34" fill="none" xmlns="http://www.w3.org/2000/svg">
<path d="M11.9999 18.2498C12.0025 18.4475 11.9654 18.6436 11.8909 18.8268C11.8164 19.0099 11.706 19.1762 11.5662 19.316C11.4264 19.4558 11.2601 19.5662 11.0769 19.6407C10.8938 19.7152 10.6976 19.7523 10.4999 19.7498H2.24994C1.97127 19.7475 1.69846 19.6696 1.46068 19.5242C1.22289 19.3789 1.02907 19.1717 0.899938 18.9248C0.779858 18.6733 0.730384 18.3939 0.756804 18.1165C0.783225 17.8391 0.884547 17.5741 1.04994 17.3498C2.37741 15.5678 4.14877 14.165 6.18744 13.281C5.31142 12.4791 4.63837 11.4807 4.22365 10.3678C3.80894 9.25496 3.66444 8.05953 3.80203 6.87992C3.93962 5.7003 4.35538 4.57022 5.01508 3.58269C5.67479 2.59516 6.55958 1.77841 7.59663 1.19966C8.63368 0.620915 9.79335 0.296717 10.9802 0.253751C12.167 0.210785 13.3471 0.450279 14.4233 0.952522C15.4995 1.45477 16.441 2.2054 17.1704 3.14264C17.8998 4.07988 18.3962 5.17694 18.6187 6.34352C18.6742 6.64735 18.6357 6.96088 18.5084 7.24228C18.3811 7.52368 18.171 7.75958 17.9062 7.91852C15.4811 9.35656 13.6367 11.599 12.6937 14.256C12.2288 15.536 11.9939 16.888 11.9999 18.2498ZM46.9499 17.3498C45.6225 15.5678 43.8511 14.165 41.8124 13.281C42.6884 12.4791 43.3615 11.4807 43.7762 10.3678C44.1909 9.25496 44.3354 8.05953 44.1978 6.87992C44.0602 5.7003 43.6445 4.57022 42.9848 3.58269C42.3251 2.59516 41.4403 1.77841 40.4032 1.19966C39.3662 0.620915 38.2065 0.296717 37.0197 0.253751C35.8329 0.210785 34.6528 0.450279 33.5766 0.952522C32.5004 1.45477 31.5589 2.2054 30.8295 3.14264C30.1001 4.07988 29.6037 5.17694 29.3812 6.34352C29.3257 6.64735 29.3642 6.96088 29.4915 7.24228C29.6188 7.52368 29.8289 7.75958 30.0937 7.91852C32.5219 9.35287 34.3674 11.5966 35.3062 14.256C35.7711 15.536 36.0059 16.888 35.9999 18.2498C35.9974 18.4475 36.0345 18.6436 36.109 18.8268C36.1835 19.0099 36.2939 19.1762 36.4337 19.316C36.5735 19.4558 36.7398 19.5662 36.9229 19.6407C37.1061 19.7152 37.3023 19.7523 37.4999 19.7498H45.7499C46.0285 19.7498 46.3016 19.6722 46.5385 19.5257C46.7755 19.3793 46.967 19.1698 47.0916 18.9206C47.2162 18.6714 47.2689 18.3925 47.2439 18.1151C47.2189 17.8376 47.1171 17.5726 46.9499 17.3498ZM29.4749 25.3935C30.9678 24.2493 32.0646 22.6661 32.6113 20.8664C33.1581 19.0667 33.1272 17.141 32.5231 15.3597C31.919 13.5785 30.772 12.0313 29.2432 10.9355C27.7145 9.83968 25.8808 9.25039 23.9999 9.25039C22.119 9.25039 20.2854 9.83968 18.7566 10.9355C17.2279 12.0313 16.0809 13.5785 15.4768 15.3597C14.8727 17.141 14.8418 19.0667 15.3885 20.8664C15.9353 22.6661 17.0321 24.2493 18.5249 25.3935C15.6084 26.6883 13.244 28.9731 11.8499 31.8435C11.739 32.0716 11.6893 32.3247 11.7058 32.5778C11.7222 32.8309 11.8042 33.0754 11.9437 33.2873C12.0735 33.5046 12.2575 33.6845 12.4777 33.8094C12.6979 33.9343 12.9468 33.9999 13.1999 33.9998H34.7999C35.0531 33.9999 35.3019 33.9343 35.5221 33.8094C35.7423 33.6845 35.9264 33.5046 36.0562 33.2873C36.1957 33.0754 36.2777 32.8309 36.2941 32.5778C36.3105 32.3247 36.2609 32.0716 36.1499 31.8435C34.7559 28.9731 32.3914 26.6883 29.4749 25.3935Z" fill="#E1E1E6"/>
</svg>
