<svg width="36" height="37" viewBox="0 0 36 37" fill="none" xmlns="http://www.w3.org/2000/svg">
<path d="M35.025 14.4436L20.025 0.812303C19.472 0.306352 18.7496 0.0257568 18 0.0257568C17.2505 0.0257568 16.5281 0.306352 15.975 0.812303L0.975034 14.4436C0.667918 14.7245 0.422631 15.0663 0.254775 15.4472C0.0869189 15.8281 0.000166126 16.2398 3.38525e-05 16.6561V33.9248C-0.0121621 34.6811 0.254858 35.4155 0.750034 35.9873C1.03107 36.3069 1.37728 36.5626 1.76537 36.7372C2.15347 36.9119 2.57446 37.0014 3.00003 36.9998H12C12.3979 36.9998 12.7794 36.8418 13.0607 36.5605C13.342 36.2792 13.5 35.8976 13.5 35.4998V26.4998C13.5 26.102 13.6581 25.7204 13.9394 25.4391C14.2207 25.1578 14.6022 24.9998 15 24.9998H21C21.3979 24.9998 21.7794 25.1578 22.0607 25.4391C22.342 25.7204 22.5 26.102 22.5 26.4998V35.4998C22.5 35.8976 22.6581 36.2792 22.9394 36.5605C23.2207 36.8418 23.6022 36.9998 24 36.9998H33C33.4976 37.0042 33.9881 36.8816 34.425 36.6436C34.9005 36.3846 35.2976 36.0026 35.5747 35.5374C35.8518 35.0723 35.9987 34.5412 36 33.9998V16.6561C35.9999 16.2398 35.9131 15.8281 35.7453 15.4472C35.5774 15.0663 35.3321 14.7245 35.025 14.4436Z" fill="#E1E1E6"/>
</svg>
