<svg width="40" height="38" viewBox="0 0 40 38" fill="none" xmlns="http://www.w3.org/2000/svg">
<path d="M39.4812 35.7498C36.6824 30.9283 32.2023 27.3095 26.9 25.5873C29.4415 24.076 31.4166 21.772 32.5217 19.0294C33.6268 16.2867 33.8009 13.2571 33.0172 10.4059C32.2335 7.55472 30.5354 5.03969 28.1837 3.24718C25.8321 1.45468 22.9569 0.483856 20 0.483856C17.0431 0.483856 14.1679 1.45468 11.8162 3.24718C9.46457 5.03969 7.76645 7.55472 6.98277 10.4059C6.19908 13.2571 6.37317 16.2867 7.4783 19.0294C8.58344 21.772 10.5585 24.076 13.1 25.5873C7.79768 27.3095 3.31762 30.9283 0.518746 35.7498C0.38133 35.9758 0.308655 36.2353 0.308655 36.4998C0.308655 36.7643 0.38133 37.0238 0.518746 37.2498C0.646953 37.4797 0.834813 37.6707 1.06251 37.8027C1.29021 37.9347 1.54932 38.0028 1.8125 37.9998H38.1875C38.4507 38.0028 38.7098 37.9347 38.9375 37.8027C39.1652 37.6707 39.353 37.4797 39.4812 37.2498C39.6187 37.0238 39.6913 36.7643 39.6913 36.4998C39.6913 36.2353 39.6187 35.9758 39.4812 35.7498Z" fill="#E1E1E6"/>
</svg>
