<svg width="50" height="50" viewBox="0 0 50 50" fill="none" xmlns="http://www.w3.org/2000/svg">
<path d="M25 49C38.2548 49 49 38.2548 49 25C49 11.7452 38.2548 1 25 1C11.7452 1 1 11.7452 1 25C1 38.2548 11.7452 49 25 49Z" stroke="#E1E1E6" stroke-width="2" stroke-linecap="round" stroke-linejoin="round"/>
<path d="M25 33C30.5228 33 35 28.5228 35 23C35 17.4772 30.5228 13 25 13C19.4772 13 15 17.4772 15 23C15 28.5228 19.4772 33 25 33Z" stroke="#E1E1E6" stroke-width="2" stroke-linecap="round" stroke-linejoin="round"/>
<path d="M8.94991 42.8499C10.4547 39.886 12.7508 37.3966 15.5838 35.6577C18.4167 33.9189 21.6759 32.9984 24.9999 32.9984C28.324 32.9984 31.5831 33.9189 34.4161 35.6577C37.249 37.3966 39.5451 39.886 41.0499 42.8499" stroke="#E1E1E6" stroke-width="2" stroke-linecap="round" stroke-linejoin="round"/>
</svg>
